<mxfile>
    <diagram id="TQFV_ZYHpwarfMyc25AP" name="Page-1">
        <mxGraphModel dx="2472" dy="904" grid="1" gridSize="10" guides="1" tooltips="1" connect="1" arrows="1" fold="1" page="1" pageScale="1" pageWidth="827" pageHeight="1169" math="0" shadow="0">
            <root>
                <mxCell id="0"/>
                <mxCell id="1" parent="0"/>
                <mxCell id="YmfHAs4OdKaFVAlsUWCm-2" value="API" style="shape=umlLifeline;perimeter=lifelinePerimeter;whiteSpace=wrap;html=1;container=1;collapsible=0;recursiveResize=0;outlineConnect=0;fillColor=#dae8fc;strokeColor=#6c8ebf;" parent="1" vertex="1">
                    <mxGeometry x="250" y="160" width="100" height="340" as="geometry"/>
                </mxCell>
                <mxCell id="YmfHAs4OdKaFVAlsUWCm-6" value="" style="html=1;points=[];perimeter=orthogonalPerimeter;fillColor=#dae8fc;strokeColor=#6c8ebf;" parent="YmfHAs4OdKaFVAlsUWCm-2" vertex="1">
                    <mxGeometry x="45" y="90" width="10" height="240" as="geometry"/>
                </mxCell>
                <mxCell id="YmfHAs4OdKaFVAlsUWCm-3" value="&lt;div&gt;Servicio de autenticaciÃ³n&lt;/div&gt;" style="shape=umlLifeline;perimeter=lifelinePerimeter;whiteSpace=wrap;html=1;container=1;collapsible=0;recursiveResize=0;outlineConnect=0;fillColor=#dae8fc;strokeColor=#6c8ebf;" parent="1" vertex="1">
                    <mxGeometry x="440" y="160" width="100" height="340" as="geometry"/>
                </mxCell>
                <mxCell id="YmfHAs4OdKaFVAlsUWCm-8" value="" style="html=1;points=[];perimeter=orthogonalPerimeter;fillColor=#dae8fc;strokeColor=#6c8ebf;" parent="YmfHAs4OdKaFVAlsUWCm-3" vertex="1">
                    <mxGeometry x="45" y="100" width="10" height="230" as="geometry"/>
                </mxCell>
                <mxCell id="YmfHAs4OdKaFVAlsUWCm-4" value="Modelo" style="shape=umlLifeline;perimeter=lifelinePerimeter;whiteSpace=wrap;html=1;container=1;collapsible=0;recursiveResize=0;outlineConnect=0;fillColor=#dae8fc;strokeColor=#6c8ebf;" parent="1" vertex="1">
                    <mxGeometry x="640" y="160" width="100" height="340" as="geometry"/>
                </mxCell>
                <mxCell id="YmfHAs4OdKaFVAlsUWCm-11" value="" style="html=1;points=[];perimeter=orthogonalPerimeter;fillColor=#dae8fc;strokeColor=#6c8ebf;" parent="YmfHAs4OdKaFVAlsUWCm-4" vertex="1">
                    <mxGeometry x="45" y="160" width="10" height="50" as="geometry"/>
                </mxCell>
                <mxCell id="YmfHAs4OdKaFVAlsUWCm-7" style="edgeStyle=orthogonalEdgeStyle;rounded=0;orthogonalLoop=1;jettySize=auto;html=1;" parent="1" edge="1">
                    <mxGeometry relative="1" as="geometry">
                        <mxPoint x="136" y="260" as="sourcePoint"/>
                        <mxPoint x="295" y="260" as="targetPoint"/>
                        <Array as="points">
                            <mxPoint x="136" y="260"/>
                        </Array>
                    </mxGeometry>
                </mxCell>
                <mxCell id="YmfHAs4OdKaFVAlsUWCm-21" value="1: logout()" style="edgeLabel;html=1;align=center;verticalAlign=middle;resizable=0;points=[];" parent="YmfHAs4OdKaFVAlsUWCm-7" vertex="1" connectable="0">
                    <mxGeometry x="0.2371" y="-2" relative="1" as="geometry">
                        <mxPoint x="-20" y="-12" as="offset"/>
                    </mxGeometry>
                </mxCell>
                <mxCell id="YmfHAs4OdKaFVAlsUWCm-9" style="edgeStyle=orthogonalEdgeStyle;rounded=0;orthogonalLoop=1;jettySize=auto;html=1;" parent="1" source="YmfHAs4OdKaFVAlsUWCm-6" edge="1">
                    <mxGeometry relative="1" as="geometry">
                        <mxPoint x="485" y="276" as="targetPoint"/>
                        <Array as="points">
                            <mxPoint x="380" y="276"/>
                            <mxPoint x="380" y="276"/>
                        </Array>
                    </mxGeometry>
                </mxCell>
                <mxCell id="YmfHAs4OdKaFVAlsUWCm-22" value="1.1: eliminarRefresh()" style="edgeLabel;html=1;align=center;verticalAlign=middle;resizable=0;points=[];" parent="YmfHAs4OdKaFVAlsUWCm-9" vertex="1" connectable="0">
                    <mxGeometry x="-0.3157" y="-3" relative="1" as="geometry">
                        <mxPoint x="24" y="-19" as="offset"/>
                    </mxGeometry>
                </mxCell>
                <mxCell id="YmfHAs4OdKaFVAlsUWCm-14" style="edgeStyle=orthogonalEdgeStyle;rounded=0;orthogonalLoop=1;jettySize=auto;html=1;" parent="1" source="YmfHAs4OdKaFVAlsUWCm-8" edge="1">
                    <mxGeometry relative="1" as="geometry">
                        <mxPoint x="684" y="335" as="targetPoint"/>
                        <Array as="points">
                            <mxPoint x="684" y="335"/>
                        </Array>
                    </mxGeometry>
                </mxCell>
                <mxCell id="YmfHAs4OdKaFVAlsUWCm-24" value="1.3: eliminarRefresh(usuario)" style="edgeLabel;html=1;align=center;verticalAlign=middle;resizable=0;points=[];" parent="YmfHAs4OdKaFVAlsUWCm-14" vertex="1" connectable="0">
                    <mxGeometry x="-0.7826" y="-2" relative="1" as="geometry">
                        <mxPoint x="64" y="-17" as="offset"/>
                    </mxGeometry>
                </mxCell>
                <mxCell id="YmfHAs4OdKaFVAlsUWCm-15" style="edgeStyle=orthogonalEdgeStyle;rounded=0;orthogonalLoop=1;jettySize=auto;html=1;" parent="1" source="YmfHAs4OdKaFVAlsUWCm-11" edge="1">
                    <mxGeometry relative="1" as="geometry">
                        <mxPoint x="496" y="360" as="targetPoint"/>
                        <Array as="points">
                            <mxPoint x="496" y="360"/>
                        </Array>
                    </mxGeometry>
                </mxCell>
                <mxCell id="YmfHAs4OdKaFVAlsUWCm-25" value="1.4: respuesta" style="edgeLabel;html=1;align=center;verticalAlign=middle;resizable=0;points=[];" parent="YmfHAs4OdKaFVAlsUWCm-15" vertex="1" connectable="0">
                    <mxGeometry x="0.2239" y="-2" relative="1" as="geometry">
                        <mxPoint x="21" y="-8" as="offset"/>
                    </mxGeometry>
                </mxCell>
                <mxCell id="YmfHAs4OdKaFVAlsUWCm-19" style="edgeStyle=orthogonalEdgeStyle;rounded=0;orthogonalLoop=1;jettySize=auto;html=1;" parent="1" edge="1">
                    <mxGeometry relative="1" as="geometry">
                        <mxPoint x="485" y="390" as="sourcePoint"/>
                        <mxPoint x="306" y="390" as="targetPoint"/>
                        <Array as="points">
                            <mxPoint x="306" y="390"/>
                        </Array>
                    </mxGeometry>
                </mxCell>
                <mxCell id="YmfHAs4OdKaFVAlsUWCm-27" value="1.5:respuesta" style="edgeLabel;html=1;align=center;verticalAlign=middle;resizable=0;points=[];" parent="YmfHAs4OdKaFVAlsUWCm-19" vertex="1" connectable="0">
                    <mxGeometry x="-0.3782" y="3" relative="1" as="geometry">
                        <mxPoint x="-29" y="-13" as="offset"/>
                    </mxGeometry>
                </mxCell>
                <mxCell id="YmfHAs4OdKaFVAlsUWCm-20" style="edgeStyle=orthogonalEdgeStyle;rounded=0;orthogonalLoop=1;jettySize=auto;html=1;" parent="1" source="YmfHAs4OdKaFVAlsUWCm-6" edge="1">
                    <mxGeometry relative="1" as="geometry">
                        <mxPoint x="136" y="421" as="targetPoint"/>
                        <Array as="points">
                            <mxPoint x="136" y="421"/>
                        </Array>
                    </mxGeometry>
                </mxCell>
                <mxCell id="YmfHAs4OdKaFVAlsUWCm-28" value="1.6: respuesta" style="edgeLabel;html=1;align=center;verticalAlign=middle;resizable=0;points=[];" parent="YmfHAs4OdKaFVAlsUWCm-20" vertex="1" connectable="0">
                    <mxGeometry x="-0.142" relative="1" as="geometry">
                        <mxPoint x="-13" y="-15" as="offset"/>
                    </mxGeometry>
                </mxCell>
                <mxCell id="YmfHAs4OdKaFVAlsUWCm-37" value="App" style="shape=umlLifeline;perimeter=lifelinePerimeter;whiteSpace=wrap;html=1;container=1;collapsible=0;recursiveResize=0;outlineConnect=0;fillColor=#dae8fc;strokeColor=#6c8ebf;" parent="1" vertex="1">
                    <mxGeometry x="80" y="160" width="100" height="340" as="geometry"/>
                </mxCell>
                <mxCell id="YmfHAs4OdKaFVAlsUWCm-38" value="" style="html=1;points=[];perimeter=orthogonalPerimeter;fillColor=#dae8fc;strokeColor=#6c8ebf;" parent="YmfHAs4OdKaFVAlsUWCm-37" vertex="1">
                    <mxGeometry x="45" y="90" width="10" height="240" as="geometry"/>
                </mxCell>
                <mxCell id="YmfHAs4OdKaFVAlsUWCm-40" style="edgeStyle=orthogonalEdgeStyle;rounded=0;orthogonalLoop=1;jettySize=auto;html=1;strokeWidth=1;" parent="YmfHAs4OdKaFVAlsUWCm-37" source="YmfHAs4OdKaFVAlsUWCm-38" edge="1">
                    <mxGeometry relative="1" as="geometry">
                        <mxPoint x="45" y="309" as="targetPoint"/>
                        <Array as="points">
                            <mxPoint x="10" y="280"/>
                            <mxPoint x="10" y="309"/>
                        </Array>
                    </mxGeometry>
                </mxCell>
                <mxCell id="YmfHAs4OdKaFVAlsUWCm-41" value="1.7: eliminarTokenAutenticacion()" style="edgeLabel;html=1;align=center;verticalAlign=middle;resizable=0;points=[];" parent="YmfHAs4OdKaFVAlsUWCm-40" vertex="1" connectable="0">
                    <mxGeometry x="-0.2929" y="-1" relative="1" as="geometry">
                        <mxPoint x="-49" y="-10" as="offset"/>
                    </mxGeometry>
                </mxCell>
            </root>
        </mxGraphModel>
    </diagram>
</mxfile>